<svg width="29" height="29" viewBox="0 0 29 29" fill="none" xmlns="http://www.w3.org/2000/svg">
<path d="M5.22754 6.333C5.22754 5.71425 5.47334 5.12084 5.91086 4.68332C6.34838 4.2458 6.94179 4 7.56054 4H19.2275C19.8463 4 20.4397 4.2458 20.8772 4.68332C21.3147 5.12084 21.5605 5.71425 21.5605 6.333V22.667C21.5605 23.2857 21.3147 23.8792 20.8772 24.3167C20.4397 24.7542 19.8463 25 19.2275 25H7.56054C6.94179 25 6.34838 24.7542 5.91086 24.3167C5.47334 23.8792 5.22754 23.2857 5.22754 22.667V6.333Z" stroke="#4338CA" stroke-width="2"/>
<path d="M9.89355 4V13.333L12.8106 11.5L15.7276 13.333V4" stroke="#4338CA" stroke-width="2"/>
</svg>
