<svg width="16" height="16" viewBox="0 0 16 16" fill="none" xmlns="http://www.w3.org/2000/svg">
<path d="M2.66699 4.00001H13.333M5.33299 4.00001V2.66701C5.33286 2.49179 5.36728 2.31826 5.43427 2.15635C5.50126 1.99445 5.59952 1.84733 5.72342 1.72343C5.84732 1.59954 5.99443 1.50128 6.15634 1.43429C6.31824 1.36729 6.49177 1.33288 6.66699 1.33301H9.33299C9.50821 1.33288 9.68174 1.36729 9.84365 1.43429C10.0056 1.50128 10.1527 1.59954 10.2766 1.72343C10.4005 1.84733 10.4987 1.99445 10.5657 2.15635C10.6327 2.31826 10.6671 2.49179 10.667 2.66701V4.00001M12.667 4.00001V13.333C12.6671 13.5082 12.6327 13.6818 12.5657 13.8437C12.4987 14.0056 12.4005 14.1527 12.2766 14.2766C12.1527 14.4005 12.0056 14.4987 11.8436 14.5657C11.6817 14.6327 11.5082 14.6671 11.333 14.667H4.66699C4.49177 14.6671 4.31824 14.6327 4.15634 14.5657C3.99443 14.4987 3.84732 14.4005 3.72342 14.2766C3.59952 14.1527 3.50126 14.0056 3.43427 13.8437C3.36728 13.6818 3.33286 13.5082 3.33299 13.333V4.00001H12.667Z" stroke="#DC2626" stroke-width="1.5"/>
</svg>
