<svg xmlns="http://www.w3.org/2000/svg" xmlns:xlink="http://www.w3.org/1999/xlink" width="480" zoomAndPan="magnify" viewBox="0 0 360 149.999998" height="200" preserveAspectRatio="xMidYMid meet" version="1.0"><defs><clipPath id="d681f551cf"><path d="M 5.648438 35.445312 L 354.351562 35.445312 L 354.351562 114.058594 L 5.648438 114.058594 Z M 5.648438 35.445312 " clip-rule="nonzero"/></clipPath><clipPath id="21ecf29bf8"><path d="M 79.484375 65.101562 L 118.484375 65.101562 L 118.484375 104.101562 L 79.484375 104.101562 Z M 79.484375 65.101562 " clip-rule="nonzero"/></clipPath></defs><rect x="-36" width="432" fill="#ffffff" y="-15" height="179.999997" fill-opacity="1"/><rect x="-36" width="432" fill="#ffffff" y="-15" height="179.999997" fill-opacity="1"/><g clip-path="url(#d681f551cf)"><path fill="#4f46e5" d="M 5.761719 112.421875 L 5.761719 37.585938 L 58.730469 37.585938 L 58.730469 52.957031 L 23.628906 52.957031 L 23.628906 66.816406 L 53.027344 66.816406 L 53.027344 81.050781 L 23.628906 81.050781 L 23.628906 96.800781 L 59.109375 96.800781 L 59.109375 112.296875 Z M 95.351562 114.058594 C 90.15625 114.058594 85.46875 112.800781 81.414062 110.40625 C 77.230469 108.011719 74.0625 104.609375 71.65625 100.328125 C 69.246094 96.042969 68.105469 91.003906 68.105469 85.210938 C 68.105469 81.050781 68.742188 77.273438 70.132812 73.871094 C 71.527344 70.34375 73.429688 67.320312 75.835938 64.671875 C 78.246094 62.027344 81.160156 60.011719 84.582031 58.5 C 88.003906 56.988281 91.675781 56.359375 95.605469 56.359375 C 99.785156 56.359375 103.589844 57.238281 107.011719 58.878906 C 110.429688 60.515625 113.347656 62.910156 115.878906 66.183594 L 111.824219 70.214844 L 111.824219 35.570312 L 129.4375 35.570312 L 129.4375 112.546875 L 114.234375 112.546875 L 114.234375 98.4375 L 116.640625 102.34375 C 115.121094 105.871094 112.457031 108.644531 108.785156 110.910156 C 105.109375 113.050781 100.675781 114.1875 95.351562 114.1875 Z M 98.644531 98.941406 C 101.179688 98.941406 103.460938 98.4375 105.363281 97.304688 C 107.390625 96.171875 108.910156 94.53125 110.050781 92.515625 C 111.191406 90.5 111.824219 87.980469 111.824219 85.210938 C 111.824219 82.3125 111.320312 79.917969 110.179688 77.902344 C 109.039062 75.886719 107.515625 74.246094 105.488281 73.113281 C 103.460938 71.980469 101.179688 71.476562 98.644531 71.476562 C 96.113281 71.476562 93.832031 71.980469 91.804688 73.113281 C 89.777344 74.246094 88.253906 75.761719 87.113281 77.902344 C 85.972656 79.917969 85.339844 82.4375 85.339844 85.210938 C 85.339844 87.980469 85.972656 90.5 87.113281 92.515625 C 88.253906 94.53125 89.902344 96.171875 91.929688 97.304688 C 93.957031 98.4375 96.238281 98.941406 98.648438 98.941406 Z M 158.839844 112.421875 L 158.839844 53.839844 L 138.816406 53.839844 L 138.816406 37.585938 L 196.855469 37.585938 L 196.855469 53.839844 L 176.832031 53.839844 L 176.832031 112.421875 Z M 218.777344 114.058594 C 215.101562 114.058594 211.804688 113.304688 208.890625 111.917969 C 205.976562 110.53125 203.695312 108.515625 202.050781 105.871094 C 200.402344 103.226562 199.515625 100.074219 199.515625 96.421875 C 199.515625 93.273438 200.273438 90.5 201.796875 88.105469 C 203.316406 85.714844 205.722656 83.695312 208.890625 82.058594 C 212.058594 80.546875 215.988281 79.414062 220.804688 78.910156 C 225.617188 78.40625 231.195312 78.40625 237.65625 78.910156 L 237.785156 89.871094 C 234.363281 89.242188 231.320312 88.988281 228.535156 88.988281 C 225.746094 88.988281 223.464844 89.242188 221.5625 89.746094 C 219.664062 90.25 218.140625 91.003906 217.128906 92.011719 C 216.113281 93.019531 215.609375 94.28125 215.609375 95.667969 C 215.609375 97.554688 216.367188 98.941406 217.761719 99.949219 C 219.15625 100.957031 221.183594 101.460938 223.589844 101.460938 C 225.746094 101.460938 227.644531 101.082031 229.292969 100.328125 C 230.941406 99.570312 232.335938 98.4375 233.347656 97.050781 C 234.363281 95.667969 234.871094 93.777344 234.871094 91.761719 L 234.871094 79.289062 C 234.871094 77.273438 234.488281 75.632812 233.601562 74.121094 C 232.714844 72.609375 231.449219 71.476562 229.671875 70.59375 C 227.898438 69.710938 225.492188 69.335938 222.578125 69.335938 C 219.789062 69.335938 216.875 69.710938 214.085938 70.59375 C 211.300781 71.476562 208.765625 72.734375 206.609375 74.375 L 202.050781 62.40625 C 205.597656 60.136719 209.398438 58.625 213.453125 57.492188 C 217.507812 56.484375 221.4375 55.855469 225.367188 55.855469 C 230.5625 55.855469 235.121094 56.734375 239.050781 58.375 C 242.980469 60.011719 246.019531 62.53125 248.300781 65.933594 C 250.582031 69.335938 251.597656 73.742188 251.597656 79.035156 L 251.597656 112.546875 L 236.390625 112.546875 L 236.390625 106.753906 C 234.617188 109.148438 232.207031 110.910156 229.167969 112.171875 C 226.125 113.429688 222.578125 114.058594 218.648438 114.058594 Z M 265.660156 112.421875 L 265.660156 35.445312 L 283.277344 35.445312 L 283.277344 112.421875 Z M 297.976562 112.421875 L 297.976562 35.445312 L 315.589844 35.445312 L 315.589844 76.011719 L 332.0625 57.996094 L 352.464844 57.996094 L 333.328125 80.042969 L 354.238281 112.546875 L 333.328125 112.546875 L 320.53125 91.507812 L 315.589844 96.800781 L 315.589844 112.675781 Z M 297.976562 112.421875 " fill-opacity="1" fill-rule="nonzero"/></g><g clip-path="url(#21ecf29bf8)"><path fill="#ffffff" d="M 98.980469 104.132812 C 97.726562 104.132812 97.148438 100.960938 96.644531 97.171875 C 94.8125 100.523438 93.128906 103.273438 91.957031 102.824219 C 90.691406 102.335938 91.5 98.667969 92.507812 94.570312 C 89.167969 97.15625 86.144531 99.375 85.183594 98.417969 C 84.300781 97.53125 86.132812 94.875 88.457031 91.84375 C 84.789062 92.917969 81.652344 93.671875 81.144531 92.527344 C 80.59375 91.289062 83.757812 89.265625 87.367188 87.082031 C 83.179688 86.546875 79.46875 85.976562 79.46875 84.621094 C 79.46875 83.367188 82.644531 82.785156 86.433594 82.285156 C 83.082031 80.453125 80.328125 78.769531 80.777344 77.597656 C 81.265625 76.332031 84.933594 77.140625 89.03125 78.148438 C 86.449219 74.808594 84.226562 71.78125 85.183594 70.824219 C 86.070312 69.9375 88.726562 71.769531 91.761719 74.09375 C 90.683594 70.429688 89.929688 67.289062 91.074219 66.78125 C 92.332031 66.226562 94.386719 69.46875 96.597656 73.132812 C 97.007812 68.894531 97.445312 65.109375 98.980469 65.109375 C 100.414062 65.109375 100.894531 68.394531 101.28125 72.269531 C 103.039062 68.796875 104.671875 65.902344 106.007812 66.414062 C 107.457031 66.976562 106.464844 70.75 105.300781 74.910156 C 108.632812 72.164062 111.679688 69.722656 112.777344 70.824219 C 113.789062 71.835938 111.808594 74.496094 109.34375 77.515625 C 113.042969 76.300781 116.242188 75.40625 116.820312 76.714844 C 117.453125 78.136719 114.082031 80.101562 110.316406 82.222656 C 114.617188 82.632812 118.492188 83.066406 118.496094 84.621094 C 118.492188 86.050781 115.207031 86.53125 111.332031 86.921875 C 114.808594 88.679688 117.699219 90.3125 117.1875 91.644531 C 116.625 93.09375 112.851562 92.101562 108.691406 90.9375 C 111.441406 94.269531 113.878906 97.320312 112.777344 98.417969 C 111.765625 99.429688 109.105469 97.445312 106.085938 94.980469 C 107.300781 98.679688 108.195312 101.878906 106.886719 102.460938 C 105.484375 103.082031 103.550781 99.796875 101.460938 96.089844 C 100.917969 100.335938 100.351562 104.132812 98.980469 104.132812 " fill-opacity="1" fill-rule="evenodd"/></g><path fill="#000000" d="M 102.230469 78.796875 C 101.355469 78.796875 100.644531 80.167969 100.644531 81.855469 C 100.644531 83.542969 101.355469 84.914062 102.230469 84.914062 C 103.105469 84.914062 103.8125 83.542969 103.8125 81.855469 C 103.8125 80.167969 103.105469 78.796875 102.230469 78.796875 " fill-opacity="1" fill-rule="evenodd"/><path fill="#000000" d="M 95.992188 78.796875 C 95.113281 78.796875 94.40625 80.167969 94.40625 81.855469 C 94.40625 83.542969 95.113281 84.914062 95.992188 84.914062 C 96.867188 84.914062 97.578125 83.542969 97.578125 81.855469 C 97.578125 80.167969 96.867188 78.796875 95.992188 78.796875 " fill-opacity="1" fill-rule="evenodd"/><path fill="#000000" d="M 91.367188 86.429688 C 91.785156 88.128906 92.753906 89.609375 94.074219 90.675781 C 95.421875 91.753906 97.125 92.398438 98.980469 92.398438 C 100.839844 92.398438 102.546875 91.753906 103.890625 90.675781 C 105.210938 89.609375 106.183594 88.128906 106.597656 86.429688 C 106.730469 86.398438 106.851562 86.335938 106.953125 86.253906 C 107.113281 86.125 107.230469 85.945312 107.273438 85.738281 C 107.304688 85.59375 107.210938 85.449219 107.066406 85.417969 C 106.921875 85.386719 106.78125 85.476562 106.75 85.625 C 106.730469 85.707031 106.683594 85.785156 106.617188 85.835938 C 106.550781 85.890625 106.472656 85.917969 106.378906 85.917969 C 106.289062 85.917969 106.207031 85.890625 106.144531 85.835938 C 106.078125 85.785156 106.03125 85.707031 106.011719 85.625 C 105.980469 85.476562 105.839844 85.386719 105.691406 85.417969 C 105.546875 85.449219 105.457031 85.59375 105.484375 85.738281 C 105.53125 85.945312 105.648438 86.125 105.808594 86.253906 C 105.882812 86.316406 105.964844 86.359375 106.054688 86.394531 C 105.652344 87.941406 104.761719 89.285156 103.554688 90.253906 C 102.304688 91.261719 100.714844 91.863281 98.980469 91.863281 C 97.253906 91.863281 95.660156 91.261719 94.410156 90.253906 C 93.203125 89.285156 92.3125 87.941406 91.910156 86.394531 C 92 86.359375 92.082031 86.316406 92.15625 86.253906 C 92.316406 86.125 92.433594 85.945312 92.480469 85.738281 C 92.507812 85.59375 92.417969 85.449219 92.273438 85.417969 C 92.128906 85.386719 91.988281 85.476562 91.953125 85.625 C 91.933594 85.707031 91.886719 85.785156 91.820312 85.835938 C 91.757812 85.890625 91.675781 85.917969 91.585938 85.917969 C 91.492188 85.917969 91.414062 85.886719 91.347656 85.835938 C 91.28125 85.785156 91.234375 85.707031 91.214844 85.625 C 91.183594 85.476562 91.042969 85.386719 90.898438 85.417969 C 90.753906 85.449219 90.660156 85.59375 90.691406 85.738281 C 90.734375 85.945312 90.851562 86.125 91.011719 86.253906 C 91.113281 86.335938 91.234375 86.398438 91.367188 86.429688 " fill-opacity="1" fill-rule="nonzero"/><path fill="#ffffff" d="M 101.847656 79.496094 C 101.632812 79.496094 101.460938 79.832031 101.460938 80.246094 C 101.460938 80.660156 101.632812 80.996094 101.847656 80.996094 C 102.0625 80.996094 102.238281 80.660156 102.238281 80.246094 C 102.238281 79.832031 102.0625 79.496094 101.847656 79.496094 " fill-opacity="1" fill-rule="evenodd"/><path fill="#ffffff" d="M 95.507812 79.496094 C 95.292969 79.496094 95.121094 79.832031 95.121094 80.246094 C 95.121094 80.660156 95.292969 80.996094 95.507812 80.996094 C 95.71875 80.996094 95.898438 80.660156 95.898438 80.246094 C 95.898438 79.832031 95.71875 79.496094 95.507812 79.496094 " fill-opacity="1" fill-rule="evenodd"/></svg>