<svg width="21" height="21" viewBox="0 0 21 21" fill="none" xmlns="http://www.w3.org/2000/svg">
<path d="M17.2276 18V16.333C17.2276 15.8952 17.1413 15.4617 16.9737 15.0573C16.8062 14.6528 16.5606 14.2854 16.251 13.9759C15.9414 13.6663 15.5738 13.4209 15.1693 13.2534C14.7649 13.086 14.3313 12.9999 13.8936 13H7.22755C6.78977 12.9999 6.35626 13.086 5.95176 13.2534C5.54727 13.4209 5.17972 13.6663 4.87012 13.9759C4.56052 14.2854 4.31492 14.6528 4.14736 15.0573C3.9798 15.4617 3.89355 15.8952 3.89355 16.333V18M10.5606 9.667C11.4447 9.667 12.2925 9.31579 12.9177 8.69064C13.5428 8.06549 13.8941 7.2176 13.8941 6.3335C13.8941 5.4494 13.5428 4.60151 12.9177 3.97636C12.2925 3.35121 11.4447 3 10.5606 3C9.67646 3 8.82857 3.35121 8.20341 3.97636C7.57826 4.60151 7.22705 5.4494 7.22705 6.3335C7.22705 7.2176 7.57826 8.06549 8.20341 8.69064C8.82857 9.31579 9.67646 9.667 10.5606 9.667Z" stroke="#4B5563" stroke-width="1.5"/>
</svg>
